<svg width="124" height="50" viewBox="0 0 124 50" fill="none" xmlns="http://www.w3.org/2000/svg">
<rect width="124" height="50" rx="15" fill="white" fill-opacity="0.1"/>
<path fill-rule="evenodd" clip-rule="evenodd" d="M36.5621 24.9998C36.5621 16.3285 33.6709 13.4373 24.9996 13.4373C16.3284 13.4373 13.4371 16.3285 13.4371 24.9998C13.4371 33.671 16.3284 36.5623 24.9996 36.5623C33.6709 36.5623 36.5621 33.671 36.5621 24.9998Z" stroke="white" stroke-width="2.5" stroke-linecap="round" stroke-linejoin="round"/>
<path d="M29.3392 26.8022C29.3392 26.8022 26.3492 22.4447 24.9992 22.4447C23.6492 22.4447 20.6617 26.8022 20.6617 26.8022" stroke="white" stroke-width="2.5" stroke-linecap="round" stroke-linejoin="round"/>
<path d="M60.03 19.185L56.12 26.716V31H54.182V26.716L50.255 19.185H52.414L55.151 24.982L57.888 19.185H60.03ZM70.051 21.633V31H68.113V29.895C67.807 30.2803 67.4046 30.5863 66.906 30.813C66.4186 31.0283 65.8973 31.136 65.342 31.136C64.6053 31.136 63.9423 30.983 63.353 30.677C62.775 30.371 62.316 29.9177 61.976 29.317C61.6473 28.7163 61.483 27.991 61.483 27.141V21.633H63.404V26.852C63.404 27.6907 63.6136 28.3367 64.033 28.79C64.4523 29.232 65.0246 29.453 65.75 29.453C66.4753 29.453 67.0476 29.232 67.467 28.79C67.8976 28.3367 68.113 27.6907 68.113 26.852V21.633H70.051ZM76.314 26.325L80.632 31H78.014L74.546 26.971V31H72.608V18.42H74.546V25.73L77.946 21.633H80.632L76.314 26.325ZM81.3751 26.274C81.3751 25.3333 81.5678 24.5003 81.9531 23.775C82.3498 23.0497 82.8824 22.4887 83.5511 22.092C84.2311 21.684 84.9791 21.48 85.7951 21.48C86.5318 21.48 87.1721 21.6273 87.7161 21.922C88.2714 22.2053 88.7134 22.5623 89.0421 22.993V21.633H90.9971V31H89.0421V29.606C88.7134 30.048 88.2658 30.4163 87.6991 30.711C87.1324 31.0057 86.4864 31.153 85.7611 31.153C84.9564 31.153 84.2198 30.949 83.5511 30.541C82.8824 30.1217 82.3498 29.5437 81.9531 28.807C81.5678 28.059 81.3751 27.2147 81.3751 26.274ZM89.0421 26.308C89.0421 25.662 88.9061 25.101 88.6341 24.625C88.3734 24.149 88.0278 23.7863 87.5971 23.537C87.1664 23.2877 86.7018 23.163 86.2031 23.163C85.7044 23.163 85.2398 23.2877 84.8091 23.537C84.3784 23.775 84.0271 24.132 83.7551 24.608C83.4944 25.0727 83.3641 25.628 83.3641 26.274C83.3641 26.92 83.4944 27.4867 83.7551 27.974C84.0271 28.4613 84.3784 28.8353 84.8091 29.096C85.2511 29.3453 85.7158 29.47 86.2031 29.47C86.7018 29.47 87.1664 29.3453 87.5971 29.096C88.0278 28.8467 88.3734 28.484 88.6341 28.008C88.9061 27.5207 89.0421 26.954 89.0421 26.308ZM95.4806 22.993C95.7639 22.517 96.1379 22.1487 96.6026 21.888C97.0786 21.616 97.6396 21.48 98.2856 21.48V23.486H97.7926C97.0332 23.486 96.4552 23.6787 96.0586 24.064C95.6732 24.4493 95.4806 25.118 95.4806 26.07V31H93.5426V21.633H95.4806V22.993ZM102.005 21.633V31H100.067V21.633H102.005Z" fill="white"/>
</svg>
