<svg width="206" height="65" viewBox="0 0 206 65" fill="none" xmlns="http://www.w3.org/2000/svg">
<path d="M78.2324 46H75.6836L74.4238 42.4355H68.916L67.7051 46H65.166L70.4102 31.9961H73.0273L78.2324 46ZM73.8086 40.541L71.8652 34.9551C71.8066 34.7728 71.7448 34.4798 71.6797 34.0762H71.6406C71.582 34.4473 71.5169 34.7402 71.4453 34.9551L69.5215 40.541H73.8086ZM82.2168 44.5254H82.1777V50.5996H79.9121V36H82.1777V37.7578H82.2168C82.9915 36.4297 84.1243 35.7656 85.6152 35.7656C86.8848 35.7656 87.8743 36.2116 88.584 37.1035C89.2936 37.9954 89.6484 39.1934 89.6484 40.6973C89.6484 42.3639 89.248 43.6986 88.4473 44.7012C87.6465 45.7038 86.5527 46.2051 85.166 46.2051C83.89 46.2051 82.9069 45.6452 82.2168 44.5254ZM82.1582 40.5801V41.8203C82.1582 42.5495 82.3893 43.168 82.8516 43.6758C83.3203 44.1836 83.9128 44.4375 84.6289 44.4375C85.4688 44.4375 86.1263 44.112 86.6016 43.4609C87.0833 42.8034 87.3242 41.8887 87.3242 40.7168C87.3242 39.7337 87.0996 38.9655 86.6504 38.4121C86.2077 37.8522 85.6055 37.5723 84.8438 37.5723C84.0365 37.5723 83.3854 37.8587 82.8906 38.4316C82.4023 39.0046 82.1582 39.7207 82.1582 40.5801ZM94.2676 44.5254H94.2285V50.5996H91.9629V36H94.2285V37.7578H94.2676C95.0423 36.4297 96.1751 35.7656 97.666 35.7656C98.9355 35.7656 99.9251 36.2116 100.635 37.1035C101.344 37.9954 101.699 39.1934 101.699 40.6973C101.699 42.3639 101.299 43.6986 100.498 44.7012C99.6973 45.7038 98.6035 46.2051 97.2168 46.2051C95.9408 46.2051 94.9577 45.6452 94.2676 44.5254ZM94.209 40.5801V41.8203C94.209 42.5495 94.4401 43.168 94.9023 43.6758C95.3711 44.1836 95.9635 44.4375 96.6797 44.4375C97.5195 44.4375 98.1771 44.112 98.6523 43.4609C99.1341 42.8034 99.375 41.8887 99.375 40.7168C99.375 39.7337 99.1504 38.9655 98.7012 38.4121C98.2585 37.8522 97.6562 37.5723 96.8945 37.5723C96.0872 37.5723 95.4362 37.8587 94.9414 38.4316C94.4531 39.0046 94.209 39.7207 94.209 40.5801ZM115.195 45.043C113.737 45.8372 112.113 46.2344 110.322 46.2344C108.252 46.2344 106.576 45.5898 105.293 44.3008C104.01 43.0117 103.369 41.306 103.369 39.1836C103.369 37.0156 104.069 35.2383 105.469 33.8516C106.875 32.4583 108.659 31.7617 110.82 31.7617C112.376 31.7617 113.685 31.9896 114.746 32.4453V34.8379C113.672 34.1217 112.393 33.7637 110.908 33.7637C109.417 33.7637 108.193 34.2552 107.236 35.2383C106.286 36.2214 105.811 37.4941 105.811 39.0566C105.811 40.6647 106.221 41.931 107.041 42.8555C107.861 43.7734 108.975 44.2324 110.381 44.2324C111.344 44.2324 112.178 44.0469 112.881 43.6758V40.3457H109.932V38.3926H115.195V45.043ZM125.635 46H123.438V44.4375H123.398C122.708 45.6354 121.696 46.2344 120.361 46.2344C119.378 46.2344 118.607 45.9674 118.047 45.4336C117.493 44.8997 117.217 44.1934 117.217 43.3145C117.217 41.4264 118.304 40.3262 120.479 40.0137L123.447 39.5938C123.447 38.168 122.77 37.4551 121.416 37.4551C120.225 37.4551 119.15 37.8652 118.193 38.6855V36.7031C119.248 36.0781 120.465 35.7656 121.846 35.7656C124.372 35.7656 125.635 37.0091 125.635 39.4961V46ZM123.447 41.0879L121.348 41.3809C120.697 41.4655 120.205 41.625 119.873 41.8594C119.548 42.0872 119.385 42.4909 119.385 43.0703C119.385 43.4935 119.535 43.8418 119.834 44.1152C120.14 44.3822 120.547 44.5156 121.055 44.5156C121.745 44.5156 122.314 44.2747 122.764 43.793C123.219 43.3047 123.447 42.6927 123.447 41.957V41.0879ZM130.684 46H128.408V31.1953H130.684V46ZM135.918 46H133.643V31.1953H135.918V46ZM147.344 41.6152H140.527C140.553 42.5397 140.837 43.2526 141.377 43.7539C141.924 44.2552 142.673 44.5059 143.623 44.5059C144.691 44.5059 145.671 44.1868 146.562 43.5488V45.375C145.651 45.9479 144.447 46.2344 142.949 46.2344C141.478 46.2344 140.322 45.7819 139.482 44.877C138.649 43.9655 138.232 42.6862 138.232 41.0391C138.232 39.4831 138.691 38.2168 139.609 37.2402C140.534 36.2572 141.68 35.7656 143.047 35.7656C144.414 35.7656 145.472 36.2051 146.221 37.084C146.969 37.9629 147.344 39.1836 147.344 40.7461V41.6152ZM145.156 40.0137C145.15 39.1999 144.958 38.5684 144.58 38.1191C144.202 37.6634 143.682 37.4355 143.018 37.4355C142.367 37.4355 141.813 37.6732 141.357 38.1484C140.908 38.6237 140.632 39.2454 140.527 40.0137H145.156ZM155.303 38.1582C155.029 37.9434 154.635 37.8359 154.121 37.8359C153.451 37.8359 152.891 38.1387 152.441 38.7441C151.992 39.3496 151.768 40.1732 151.768 41.2148V46H149.502V36H151.768V38.0605H151.807C152.028 37.3574 152.367 36.8105 152.822 36.4199C153.285 36.0228 153.799 35.8242 154.365 35.8242C154.775 35.8242 155.088 35.8861 155.303 36.0098V38.1582ZM166.367 36L161.855 47.6016C160.918 49.6719 159.603 50.707 157.91 50.707C157.435 50.707 157.038 50.6647 156.719 50.5801V48.6953C157.077 48.8125 157.402 48.8711 157.695 48.8711C158.542 48.8711 159.173 48.4544 159.59 47.6211L160.264 45.9805L156.289 36H158.799L161.182 43.2656C161.208 43.3568 161.266 43.5977 161.357 43.9883H161.406C161.439 43.8385 161.497 43.6042 161.582 43.2852L164.082 36H166.367Z" fill="#0085FF"/>
<rect x="1" y="1" width="204" height="63" rx="8" stroke="#0085FF" stroke-width="2"/>
<path d="M74.2393 24H73.0586L72.0938 21.4482H68.2344L67.3267 24H66.1396L69.6309 14.8975H70.7354L74.2393 24ZM71.7446 20.4897L70.3164 16.6113C70.2699 16.4844 70.2233 16.2812 70.1768 16.002H70.1514C70.109 16.2601 70.0604 16.4632 70.0054 16.6113L68.5898 20.4897H71.7446ZM80.3013 17.5L77.7114 24H76.6895L74.2266 17.5H75.3691L77.0195 22.2227C77.1423 22.5697 77.2184 22.8722 77.248 23.1304H77.2734C77.3158 22.8045 77.3835 22.5104 77.4766 22.248L79.2031 17.5H80.3013ZM86.0776 24H85.0366V22.9844H85.0112C84.5584 23.763 83.8919 24.1523 83.0117 24.1523C82.3643 24.1523 81.8564 23.981 81.4883 23.6382C81.1243 23.2954 80.9424 22.8405 80.9424 22.2734C80.9424 21.0589 81.6576 20.3522 83.0879 20.1533L85.0366 19.8804C85.0366 18.7759 84.5902 18.2236 83.6973 18.2236C82.9144 18.2236 82.2077 18.4902 81.5771 19.0234V17.957C82.2161 17.5508 82.9525 17.3477 83.7861 17.3477C85.3138 17.3477 86.0776 18.1559 86.0776 19.7725V24ZM85.0366 20.7119L83.4688 20.9277C82.9863 20.9954 82.6224 21.116 82.377 21.2896C82.1315 21.4588 82.0088 21.7614 82.0088 22.1973C82.0088 22.5146 82.1209 22.7749 82.3452 22.978C82.5737 23.1769 82.8763 23.2764 83.2529 23.2764C83.7692 23.2764 84.1945 23.0965 84.5288 22.7368C84.8674 22.3729 85.0366 21.9137 85.0366 21.3594V20.7119ZM88.5723 15.8496C88.3861 15.8496 88.2274 15.7861 88.0962 15.6592C87.965 15.5322 87.8994 15.3714 87.8994 15.1768C87.8994 14.9821 87.965 14.8213 88.0962 14.6943C88.2274 14.5632 88.3861 14.4976 88.5723 14.4976C88.7627 14.4976 88.9235 14.5632 89.0547 14.6943C89.1901 14.8213 89.2578 14.9821 89.2578 15.1768C89.2578 15.363 89.1901 15.5216 89.0547 15.6528C88.9235 15.784 88.7627 15.8496 88.5723 15.8496ZM89.0801 24H88.0391V17.5H89.0801V24ZM92.2539 23.0605H92.2285V24H91.1875V14.377H92.2285V18.6426H92.2539C92.766 17.7793 93.515 17.3477 94.501 17.3477C95.3346 17.3477 95.9863 17.6396 96.4561 18.2236C96.93 18.8034 97.167 19.582 97.167 20.5596C97.167 21.6471 96.9025 22.5189 96.3735 23.1748C95.8446 23.8265 95.1209 24.1523 94.2026 24.1523C93.3436 24.1523 92.694 23.7884 92.2539 23.0605ZM92.2285 20.439V21.3467C92.2285 21.8841 92.402 22.3411 92.749 22.7178C93.1003 23.0902 93.5446 23.2764 94.082 23.2764C94.7126 23.2764 95.2056 23.0352 95.561 22.5527C95.9207 22.0703 96.1006 21.3996 96.1006 20.5405C96.1006 19.8169 95.9334 19.2498 95.5991 18.8394C95.2648 18.4289 94.812 18.2236 94.2407 18.2236C93.6356 18.2236 93.1489 18.4352 92.7808 18.8584C92.4126 19.2773 92.2285 19.8042 92.2285 20.439ZM99.8711 24H98.8301V14.377H99.8711V24ZM107.203 21.0103H102.613C102.63 21.7339 102.825 22.2925 103.197 22.686C103.57 23.0796 104.082 23.2764 104.733 23.2764C105.465 23.2764 106.138 23.0352 106.752 22.5527V23.5303C106.181 23.945 105.425 24.1523 104.486 24.1523C103.568 24.1523 102.846 23.8582 102.321 23.27C101.797 22.6776 101.534 21.846 101.534 20.7754C101.534 19.764 101.82 18.9409 102.391 18.3062C102.967 17.6672 103.68 17.3477 104.53 17.3477C105.381 17.3477 106.039 17.6227 106.504 18.1729C106.97 18.723 107.203 19.4868 107.203 20.4644V21.0103ZM106.136 20.1279C106.132 19.527 105.986 19.0594 105.698 18.7251C105.415 18.3908 105.019 18.2236 104.511 18.2236C104.02 18.2236 103.604 18.3993 103.261 18.7505C102.918 19.1017 102.706 19.5609 102.626 20.1279H106.136ZM115.067 24.1523C114.107 24.1523 113.339 23.8498 112.763 23.2446C112.192 22.6353 111.906 21.8291 111.906 20.8262C111.906 19.7344 112.205 18.8817 112.801 18.2681C113.398 17.6545 114.204 17.3477 115.22 17.3477C116.189 17.3477 116.944 17.646 117.486 18.2427C118.032 18.8394 118.305 19.6667 118.305 20.7246C118.305 21.7614 118.011 22.5929 117.422 23.2192C116.838 23.8413 116.053 24.1523 115.067 24.1523ZM115.144 18.2236C114.475 18.2236 113.946 18.4521 113.557 18.9092C113.167 19.362 112.973 19.9883 112.973 20.7881C112.973 21.5583 113.169 22.1655 113.563 22.6099C113.957 23.0542 114.483 23.2764 115.144 23.2764C115.816 23.2764 116.333 23.0584 116.692 22.6226C117.056 22.1867 117.238 21.5667 117.238 20.7627C117.238 19.9502 117.056 19.3239 116.692 18.8838C116.333 18.4437 115.816 18.2236 115.144 18.2236ZM125.363 24H124.322V20.293C124.322 18.9134 123.819 18.2236 122.812 18.2236C122.291 18.2236 121.859 18.4204 121.517 18.814C121.178 19.2033 121.009 19.6963 121.009 20.293V24H119.968V17.5H121.009V18.5791H121.034C121.525 17.7581 122.236 17.3477 123.167 17.3477C123.878 17.3477 124.422 17.5783 124.798 18.0396C125.175 18.4966 125.363 19.1589 125.363 20.0264V24Z" fill="#0085FF"/>
<g clip-path="url(#clip0_2_1632)">
<path d="M20.814 23.4674C20.814 23.4674 17.8821 26.195 17.7218 29.0798V29.6163C17.8512 31.9473 19.6574 33.3198 19.6574 33.3198C22.5525 36.0774 29.5659 39.5462 31.2106 40.3301C31.2106 40.3301 31.3091 40.3787 31.3709 40.3186L31.4018 40.2584V40.1925C26.9059 30.6535 20.8128 23.4685 20.8128 23.4685L20.814 23.4674ZM30.2772 42.6773C30.2463 42.5513 30.1228 42.5513 30.1228 42.5513L18.439 42.9548C19.7013 45.1586 21.8412 46.8514 24.0737 46.3449C25.5949 45.9599 29.0778 43.5988 30.2154 42.7976C30.314 42.7189 30.2772 42.6588 30.2772 42.6588V42.6773ZM30.4066 41.4725C25.2731 38.0939 15.3337 32.9336 15.3337 32.9336C15.1214 33.5802 15.009 34.254 15 34.9328V35.0414C15 36.6914 15.6306 37.8477 15.6306 37.8477C16.8988 40.455 19.3356 41.2447 19.3356 41.2447C20.4494 41.7026 21.5562 41.7199 21.5562 41.7199C21.7474 41.75 28.5209 41.7199 30.3259 41.7199C30.4066 41.7199 30.4553 41.6413 30.4553 41.6413V41.5511C30.4553 41.5026 30.4054 41.4725 30.4054 41.4725H30.4066ZM29.3426 18.9198C28.2208 19.1996 27.2204 19.8218 26.4881 20.6952C25.7558 21.5687 25.33 22.6476 25.2731 23.7738V24.4063C25.3007 24.9533 25.3858 25.4961 25.5272 26.0262C26.5722 30.4951 31.644 37.8176 32.7329 39.3589C32.8137 39.4375 32.8932 39.4074 32.8932 39.4074C32.9236 39.3942 32.9489 39.372 32.9655 39.344C32.9821 39.316 32.9893 39.2835 32.9859 39.2513C34.6686 22.9135 31.2296 18.5649 31.2296 18.5649C30.7225 18.5949 29.3426 18.9198 29.3426 18.9198ZM42.4859 22.4187C42.4859 22.4187 41.7128 19.6425 38.6265 18.9013C38.6265 18.9013 37.724 18.684 36.7704 18.5637C36.7704 18.5637 33.3196 22.8939 34.9951 39.2675C35.0141 39.3762 35.0937 39.3878 35.0937 39.3878C35.2053 39.4363 35.2481 39.3462 35.2481 39.3462C36.3928 37.7563 41.4266 30.4638 42.4538 26.025C42.4538 26.025 43.0226 23.8628 42.4847 22.4175L42.4859 22.4187ZM37.8653 42.5686C37.8653 42.5686 37.7537 42.5686 37.7228 42.6415C37.7228 42.6415 37.7038 42.7502 37.7656 42.7976C38.8723 43.5861 42.2804 45.8813 43.9132 46.3449C43.9132 46.3449 44.1674 46.4236 44.5937 46.4351H44.8098C45.9047 46.4051 47.8213 45.8686 49.5598 42.9548L37.8451 42.5698L37.8653 42.5686ZM50.2604 29.6036C50.4837 26.4239 47.186 23.4789 47.186 23.4674C47.186 23.4674 41.0941 30.6523 36.6279 40.1185C36.6279 40.1185 36.5781 40.2388 36.6588 40.3174L36.7206 40.329H36.8191C38.4947 39.5161 45.4594 36.0589 48.3414 33.3313C48.3414 33.3313 50.1654 31.8976 50.2593 29.6036H50.2604ZM52.6663 32.9035C52.6663 32.9035 42.7269 38.0951 37.5934 41.4552C37.5934 41.4552 37.5126 41.5211 37.5435 41.6298C37.5435 41.6298 37.5934 41.7199 37.6551 41.7199C39.4922 41.7199 46.4628 41.7199 46.6362 41.6899C46.6362 41.6899 47.5387 41.6598 48.6466 41.2447C48.6466 41.2447 51.1143 40.4735 52.4003 37.7401C52.4003 37.7401 53.5569 35.5063 52.6663 32.9047V32.9035Z" fill="#0085FF"/>
</g>
<defs>
<clipPath id="clip0_2_1632">
<rect width="38" height="37" fill="white" transform="translate(15 14)"/>
</clipPath>
</defs>
</svg>
