<svg width="206" height="65" viewBox="0 0 206 65" fill="none" xmlns="http://www.w3.org/2000/svg">
<path d="M63.3105 41.7451L62.625 44.5762H61.6729L62.5615 41.7451H63.3105ZM65.1768 51V41.8975H67.6904C70.8981 41.8975 72.502 43.3765 72.502 46.3345C72.502 47.7394 72.0555 48.8693 71.1626 49.7241C70.2739 50.5747 69.0827 51 67.5889 51H65.1768ZM66.2432 42.8623V50.0352H67.6016C68.7949 50.0352 69.7238 49.7157 70.3882 49.0767C71.0526 48.4377 71.3848 47.5321 71.3848 46.3599C71.3848 44.0282 70.1449 42.8623 67.665 42.8623H66.2432ZM79.1162 51H74.292V41.8975H78.9131V42.8623H75.3584V45.8901H78.6465V46.8486H75.3584V50.0352H79.1162V51ZM88.2061 51H86.8984L82.2139 43.7446C82.0954 43.5627 81.998 43.3722 81.9219 43.1733H81.8838C81.9176 43.368 81.9346 43.7848 81.9346 44.4238V51H80.8682V41.8975H82.252L86.8096 49.0386C87 49.3348 87.1227 49.5379 87.1777 49.6479H87.2031C87.1608 49.3856 87.1396 48.9391 87.1396 48.3086V41.8975H88.2061V51ZM101.206 51H100.025L99.0605 48.4482H95.2012L94.2935 51H93.1064L96.5977 41.8975H97.7021L101.206 51ZM98.7114 47.4897L97.2832 43.6113C97.2367 43.4844 97.1901 43.2812 97.1436 43.002H97.1182C97.0758 43.2601 97.0272 43.4632 96.9722 43.6113L95.5566 47.4897H98.7114ZM107.274 51H102.552V41.8975H103.618V50.0352H107.274V51ZM109.737 51H108.671V41.8975H109.737V51ZM119.475 51H118.167L113.482 43.7446C113.364 43.5627 113.267 43.3722 113.19 43.1733H113.152C113.186 43.368 113.203 43.7848 113.203 44.4238V51H112.137V41.8975H113.521L118.078 49.0386C118.269 49.3348 118.391 49.5379 118.446 49.6479H118.472C118.429 49.3856 118.408 48.9391 118.408 48.3086V41.8975H119.475V51Z" fill="#0085FF"/>
<rect x="1" y="1" width="204" height="63" rx="8" stroke="#0085FF" stroke-width="2"/>
<path d="M74.6562 28.043C73.1979 28.8372 71.5736 29.2344 69.7832 29.2344C67.7129 29.2344 66.0365 28.5898 64.7539 27.3008C63.4714 26.0117 62.8301 24.306 62.8301 22.1836C62.8301 20.0156 63.5299 18.2383 64.9297 16.8516C66.3359 15.4583 68.1198 14.7617 70.2812 14.7617C71.8372 14.7617 73.1458 14.9896 74.207 15.4453V17.8379C73.1328 17.1217 71.8535 16.7637 70.3691 16.7637C68.8783 16.7637 67.6543 17.2552 66.6973 18.2383C65.7467 19.2214 65.2715 20.4941 65.2715 22.0566C65.2715 23.6647 65.6816 24.931 66.502 25.8555C67.3223 26.7734 68.4355 27.2324 69.8418 27.2324C70.8053 27.2324 71.6387 27.0469 72.3418 26.6758V23.3457H69.3926V21.3926H74.6562V28.043ZM81.8535 29.2344C80.3105 29.2344 79.0768 28.7689 78.1523 27.8379C77.2344 26.9004 76.7754 25.6602 76.7754 24.1172C76.7754 22.4375 77.2539 21.1257 78.2109 20.1816C79.1745 19.2376 80.4701 18.7656 82.0977 18.7656C83.6602 18.7656 84.8776 19.2246 85.75 20.1426C86.6224 21.0605 87.0586 22.3333 87.0586 23.9609C87.0586 25.556 86.5866 26.8353 85.6426 27.7988C84.7051 28.7559 83.4421 29.2344 81.8535 29.2344ZM81.9609 20.5723C81.0755 20.5723 80.3757 20.8815 79.8613 21.5C79.347 22.1185 79.0898 22.9714 79.0898 24.0586C79.0898 25.1068 79.3503 25.9336 79.8711 26.5391C80.3919 27.138 81.0885 27.4375 81.9609 27.4375C82.8529 27.4375 83.5365 27.1413 84.0117 26.5488C84.4935 25.9564 84.7344 25.1133 84.7344 24.0195C84.7344 22.9193 84.4935 22.0697 84.0117 21.4707C83.5365 20.8717 82.8529 20.5723 81.9609 20.5723ZM93.8066 29.2344C92.2637 29.2344 91.0299 28.7689 90.1055 27.8379C89.1875 26.9004 88.7285 25.6602 88.7285 24.1172C88.7285 22.4375 89.207 21.1257 90.1641 20.1816C91.1276 19.2376 92.4232 18.7656 94.0508 18.7656C95.6133 18.7656 96.8307 19.2246 97.7031 20.1426C98.5755 21.0605 99.0117 22.3333 99.0117 23.9609C99.0117 25.556 98.5397 26.8353 97.5957 27.7988C96.6582 28.7559 95.3952 29.2344 93.8066 29.2344ZM93.9141 20.5723C93.0286 20.5723 92.3288 20.8815 91.8145 21.5C91.3001 22.1185 91.043 22.9714 91.043 24.0586C91.043 25.1068 91.3034 25.9336 91.8242 26.5391C92.3451 27.138 93.0417 27.4375 93.9141 27.4375C94.806 27.4375 95.4896 27.1413 95.9648 26.5488C96.4466 25.9564 96.6875 25.1133 96.6875 24.0195C96.6875 22.9193 96.4466 22.0697 95.9648 21.4707C95.4896 20.8717 94.806 20.5723 93.9141 20.5723ZM110.428 28.1992C110.428 31.8711 108.582 33.707 104.891 33.707C103.589 33.707 102.452 33.4889 101.482 33.0527V30.9824C102.576 31.6074 103.615 31.9199 104.598 31.9199C106.974 31.9199 108.162 30.7513 108.162 28.4141V27.3203H108.123C107.374 28.5964 106.248 29.2344 104.744 29.2344C103.527 29.2344 102.544 28.7917 101.795 27.9062C101.053 27.0143 100.682 25.8197 100.682 24.3223C100.682 22.623 101.082 21.2721 101.883 20.2695C102.684 19.2669 103.784 18.7656 105.184 18.7656C106.505 18.7656 107.485 19.306 108.123 20.3867H108.162V19H110.428V28.1992ZM108.182 24.4199V23.1211C108.182 22.418 107.947 21.819 107.479 21.3242C107.016 20.8229 106.437 20.5723 105.74 20.5723C104.881 20.5723 104.207 20.8913 103.719 21.5293C103.237 22.1608 102.996 23.0462 102.996 24.1855C102.996 25.1686 103.227 25.9564 103.689 26.5488C104.158 27.1348 104.777 27.4277 105.545 27.4277C106.326 27.4277 106.961 27.1478 107.449 26.5879C107.938 26.0215 108.182 25.2988 108.182 24.4199ZM115.652 29H113.377V14.1953H115.652V29ZM127.078 24.6152H120.262C120.288 25.5397 120.571 26.2526 121.111 26.7539C121.658 27.2552 122.407 27.5059 123.357 27.5059C124.425 27.5059 125.405 27.1868 126.297 26.5488V28.375C125.385 28.9479 124.181 29.2344 122.684 29.2344C121.212 29.2344 120.057 28.7819 119.217 27.877C118.383 26.9655 117.967 25.6862 117.967 24.0391C117.967 22.4831 118.426 21.2168 119.344 20.2402C120.268 19.2572 121.414 18.7656 122.781 18.7656C124.148 18.7656 125.206 19.2051 125.955 20.084C126.704 20.9629 127.078 22.1836 127.078 23.7461V24.6152ZM124.891 23.0137C124.884 22.1999 124.692 21.5684 124.314 21.1191C123.937 20.6634 123.416 20.4355 122.752 20.4355C122.101 20.4355 121.548 20.6732 121.092 21.1484C120.643 21.6237 120.366 22.2454 120.262 23.0137H124.891ZM137.312 23.9219V29H134.998V14.9961H139.246C140.854 14.9961 142.101 15.3704 142.986 16.1191C143.872 16.8678 144.314 17.9225 144.314 19.2832C144.314 20.6439 143.852 21.7572 142.928 22.623C142.003 23.4889 140.753 23.9219 139.178 23.9219H137.312ZM137.312 16.9102V22.0273H138.816C139.812 22.0273 140.571 21.7962 141.092 21.334C141.613 20.8717 141.873 20.2207 141.873 19.3809C141.873 17.7337 140.916 16.9102 139.002 16.9102H137.312ZM148.719 29H146.443V14.1953H148.719V29ZM159.354 29H157.156V27.4375H157.117C156.427 28.6354 155.415 29.2344 154.08 29.2344C153.097 29.2344 152.326 28.9674 151.766 28.4336C151.212 27.8997 150.936 27.1934 150.936 26.3145C150.936 24.4264 152.023 23.3262 154.197 23.0137L157.166 22.5938C157.166 21.168 156.489 20.4551 155.135 20.4551C153.943 20.4551 152.869 20.8652 151.912 21.6855V19.7031C152.967 19.0781 154.184 18.7656 155.564 18.7656C158.09 18.7656 159.354 20.0091 159.354 22.4961V29ZM157.166 24.0879L155.066 24.3809C154.415 24.4655 153.924 24.625 153.592 24.8594C153.266 25.0872 153.104 25.4909 153.104 26.0703C153.104 26.4935 153.253 26.8418 153.553 27.1152C153.859 27.3822 154.266 27.5156 154.773 27.5156C155.464 27.5156 156.033 27.2747 156.482 26.793C156.938 26.3047 157.166 25.6927 157.166 24.957V24.0879ZM170.789 19L166.277 30.6016C165.34 32.6719 164.025 33.707 162.332 33.707C161.857 33.707 161.46 33.6647 161.141 33.5801V31.6953C161.499 31.8125 161.824 31.8711 162.117 31.8711C162.964 31.8711 163.595 31.4544 164.012 30.6211L164.686 28.9805L160.711 19H163.221L165.604 26.2656C165.63 26.3568 165.688 26.5977 165.779 26.9883H165.828C165.861 26.8385 165.919 26.6042 166.004 26.2852L168.504 19H170.789Z" fill="#0085FF"/>
<path d="M33.7784 32.8474L16.967 15.9908L38.356 28.2697L33.7784 32.8474ZM12.5807 15C11.5899 15.518 10.9281 16.4625 10.9281 17.6886V51.3029C10.9281 52.529 11.5911 53.4735 12.5807 53.9915L32.127 34.4915L12.5807 15ZM44.9678 32.1844L40.4815 29.5872L35.4774 34.5L40.4815 39.4128L45.0592 36.8156C46.4303 35.7273 46.4303 33.2739 44.9678 32.1844ZM16.9682 53.0104L38.3573 40.7315L33.7796 36.1538L16.9682 53.0104Z" fill="#0085FF"/>
</svg>
