<svg width="205" height="65" viewBox="0 0 205 65" fill="none" xmlns="http://www.w3.org/2000/svg">
<path d="M75.2324 48H72.6836L71.4238 44.4355H65.916L64.7051 48H62.166L67.4102 33.9961H70.0273L75.2324 48ZM70.8086 42.541L68.8652 36.9551C68.8066 36.7728 68.7448 36.4798 68.6797 36.0762H68.6406C68.582 36.4473 68.5169 36.7402 68.4453 36.9551L66.5215 42.541H70.8086ZM79.2168 46.5254H79.1777V52.5996H76.9121V38H79.1777V39.7578H79.2168C79.9915 38.4297 81.1243 37.7656 82.6152 37.7656C83.8848 37.7656 84.8743 38.2116 85.584 39.1035C86.2936 39.9954 86.6484 41.1934 86.6484 42.6973C86.6484 44.3639 86.248 45.6986 85.4473 46.7012C84.6465 47.7038 83.5527 48.2051 82.166 48.2051C80.89 48.2051 79.9069 47.6452 79.2168 46.5254ZM79.1582 42.5801V43.8203C79.1582 44.5495 79.3893 45.168 79.8516 45.6758C80.3203 46.1836 80.9128 46.4375 81.6289 46.4375C82.4688 46.4375 83.1263 46.112 83.6016 45.4609C84.0833 44.8034 84.3242 43.8887 84.3242 42.7168C84.3242 41.7337 84.0996 40.9655 83.6504 40.4121C83.2077 39.8522 82.6055 39.5723 81.8438 39.5723C81.0365 39.5723 80.3854 39.8587 79.8906 40.4316C79.4023 41.0046 79.1582 41.7207 79.1582 42.5801ZM91.2676 46.5254H91.2285V52.5996H88.9629V38H91.2285V39.7578H91.2676C92.0423 38.4297 93.1751 37.7656 94.666 37.7656C95.9355 37.7656 96.9251 38.2116 97.6348 39.1035C98.3444 39.9954 98.6992 41.1934 98.6992 42.6973C98.6992 44.3639 98.2988 45.6986 97.498 46.7012C96.6973 47.7038 95.6035 48.2051 94.2168 48.2051C92.9408 48.2051 91.9577 47.6452 91.2676 46.5254ZM91.209 42.5801V43.8203C91.209 44.5495 91.4401 45.168 91.9023 45.6758C92.3711 46.1836 92.9635 46.4375 93.6797 46.4375C94.5195 46.4375 95.1771 46.112 95.6523 45.4609C96.1341 44.8034 96.375 43.8887 96.375 42.7168C96.375 41.7337 96.1504 40.9655 95.7012 40.4121C95.2585 39.8522 94.6562 39.5723 93.8945 39.5723C93.0872 39.5723 92.4362 39.8587 91.9414 40.4316C91.4531 41.0046 91.209 41.7207 91.209 42.5801ZM106.131 47.4434V45.0508C106.346 45.2461 106.6 45.4219 106.893 45.5781C107.192 45.7344 107.508 45.8678 107.84 45.9785C108.172 46.0827 108.504 46.1641 108.836 46.2227C109.168 46.2812 109.474 46.3105 109.754 46.3105C110.73 46.3105 111.456 46.1478 111.932 45.8223C112.413 45.4967 112.654 45.0247 112.654 44.4062C112.654 44.0742 112.573 43.7878 112.41 43.5469C112.254 43.2995 112.033 43.0749 111.746 42.873C111.46 42.6712 111.121 42.4792 110.73 42.2969C110.346 42.1081 109.933 41.9128 109.49 41.7109C109.015 41.457 108.572 41.1999 108.162 40.9395C107.752 40.679 107.394 40.3926 107.088 40.0801C106.788 39.7611 106.551 39.403 106.375 39.0059C106.206 38.6087 106.121 38.1432 106.121 37.6094C106.121 36.9518 106.268 36.3822 106.561 35.9004C106.86 35.4121 107.251 35.0117 107.732 34.6992C108.221 34.3802 108.774 34.1458 109.393 33.9961C110.011 33.8398 110.643 33.7617 111.287 33.7617C112.752 33.7617 113.82 33.9277 114.49 34.2598V36.5547C113.696 35.9818 112.674 35.6953 111.424 35.6953C111.079 35.6953 110.734 35.7279 110.389 35.793C110.05 35.8581 109.744 35.9655 109.471 36.1152C109.204 36.265 108.986 36.457 108.816 36.6914C108.647 36.9258 108.562 37.209 108.562 37.541C108.562 37.8535 108.628 38.1237 108.758 38.3516C108.888 38.5794 109.077 38.7878 109.324 38.9766C109.578 39.1654 109.884 39.3509 110.242 39.5332C110.607 39.709 111.027 39.901 111.502 40.1094C111.99 40.3633 112.449 40.6302 112.879 40.9102C113.315 41.1901 113.696 41.4993 114.021 41.8379C114.354 42.1764 114.614 42.554 114.803 42.9707C114.998 43.3809 115.096 43.8496 115.096 44.377C115.096 45.0866 114.952 45.6855 114.666 46.1738C114.38 46.6621 113.992 47.0592 113.504 47.3652C113.022 47.6712 112.465 47.8926 111.834 48.0293C111.202 48.166 110.535 48.2344 109.832 48.2344C109.598 48.2344 109.308 48.2148 108.963 48.1758C108.624 48.1432 108.276 48.0911 107.918 48.0195C107.56 47.9544 107.221 47.873 106.902 47.7754C106.583 47.6777 106.326 47.5671 106.131 47.4434ZM122.107 47.8926C121.665 48.1139 121.082 48.2246 120.359 48.2246C118.419 48.2246 117.449 47.2936 117.449 45.4316V39.7773H115.779V38H117.449V35.6855L119.715 35.041V38H122.107V39.7773H119.715V44.7773C119.715 45.3698 119.822 45.793 120.037 46.0469C120.252 46.3008 120.61 46.4277 121.111 46.4277C121.495 46.4277 121.827 46.3171 122.107 46.0957V47.8926ZM128.377 48.2344C126.834 48.2344 125.6 47.7689 124.676 46.8379C123.758 45.9004 123.299 44.6602 123.299 43.1172C123.299 41.4375 123.777 40.1257 124.734 39.1816C125.698 38.2376 126.993 37.7656 128.621 37.7656C130.184 37.7656 131.401 38.2246 132.273 39.1426C133.146 40.0605 133.582 41.3333 133.582 42.9609C133.582 44.556 133.11 45.8353 132.166 46.7988C131.229 47.7559 129.965 48.2344 128.377 48.2344ZM128.484 39.5723C127.599 39.5723 126.899 39.8815 126.385 40.5C125.87 41.1185 125.613 41.9714 125.613 43.0586C125.613 44.1068 125.874 44.9336 126.395 45.5391C126.915 46.138 127.612 46.4375 128.484 46.4375C129.376 46.4375 130.06 46.1413 130.535 45.5488C131.017 44.9564 131.258 44.1133 131.258 43.0195C131.258 41.9193 131.017 41.0697 130.535 40.4707C130.06 39.8717 129.376 39.5723 128.484 39.5723ZM141.697 40.1582C141.424 39.9434 141.03 39.8359 140.516 39.8359C139.845 39.8359 139.285 40.1387 138.836 40.7441C138.387 41.3496 138.162 42.1732 138.162 43.2148V48H135.896V38H138.162V40.0605H138.201C138.423 39.3574 138.761 38.8105 139.217 38.4199C139.679 38.0228 140.193 37.8242 140.76 37.8242C141.17 37.8242 141.482 37.8861 141.697 38.0098V40.1582ZM151.59 43.6152H144.773C144.799 44.5397 145.083 45.2526 145.623 45.7539C146.17 46.2552 146.919 46.5059 147.869 46.5059C148.937 46.5059 149.917 46.1868 150.809 45.5488V47.375C149.897 47.9479 148.693 48.2344 147.195 48.2344C145.724 48.2344 144.568 47.7819 143.729 46.877C142.895 45.9655 142.479 44.6862 142.479 43.0391C142.479 41.4831 142.938 40.2168 143.855 39.2402C144.78 38.2572 145.926 37.7656 147.293 37.7656C148.66 37.7656 149.718 38.2051 150.467 39.084C151.215 39.9629 151.59 41.1836 151.59 42.7461V43.6152ZM149.402 42.0137C149.396 41.1999 149.204 40.5684 148.826 40.1191C148.449 39.6634 147.928 39.4355 147.264 39.4355C146.613 39.4355 146.059 39.6732 145.604 40.1484C145.154 40.6237 144.878 41.2454 144.773 42.0137H149.402Z" fill="#0085FF"/>
<rect x="1" y="1" width="203" height="63" rx="8" stroke="#0085FF" stroke-width="2"/>
<path d="M62.1934 24V14.8975H64.707C67.9147 14.8975 69.5186 16.3765 69.5186 19.3345C69.5186 20.7394 69.0721 21.8693 68.1792 22.7241C67.2905 23.5747 66.0993 24 64.6055 24H62.1934ZM63.2598 15.8623V23.0352H64.6182C65.8115 23.0352 66.7404 22.7157 67.4048 22.0767C68.0692 21.4377 68.4014 20.5321 68.4014 19.3599C68.4014 17.0282 67.1615 15.8623 64.6816 15.8623H63.2598ZM73.8857 24.1523C72.9251 24.1523 72.1571 23.8498 71.5815 23.2446C71.0103 22.6353 70.7246 21.8291 70.7246 20.8262C70.7246 19.7344 71.0229 18.8817 71.6196 18.2681C72.2163 17.6545 73.0225 17.3477 74.0381 17.3477C75.0072 17.3477 75.7625 17.646 76.3042 18.2427C76.8501 18.8394 77.123 19.6667 77.123 20.7246C77.123 21.7614 76.8289 22.5929 76.2407 23.2192C75.6567 23.8413 74.8717 24.1523 73.8857 24.1523ZM73.9619 18.2236C73.2933 18.2236 72.7643 18.4521 72.375 18.9092C71.9857 19.362 71.791 19.9883 71.791 20.7881C71.791 21.5583 71.9878 22.1655 72.3813 22.6099C72.7749 23.0542 73.3018 23.2764 73.9619 23.2764C74.6348 23.2764 75.151 23.0584 75.5107 22.6226C75.8747 22.1867 76.0566 21.5667 76.0566 20.7627C76.0566 19.9502 75.8747 19.3239 75.5107 18.8838C75.151 18.4437 74.6348 18.2236 73.9619 18.2236ZM86.9746 17.5L85.0259 24H83.9468L82.6074 19.3472C82.5566 19.1694 82.5228 18.9684 82.5059 18.7441H82.4805C82.4678 18.8965 82.4233 19.0933 82.3472 19.3345L80.8936 24H79.8525L77.8848 17.5H78.9766L80.3223 22.3877C80.3646 22.5358 80.3942 22.7305 80.4111 22.9717H80.4619C80.4746 22.7855 80.5127 22.5866 80.5762 22.375L82.0742 17.5H83.0264L84.3721 22.4004C84.4144 22.557 84.4461 22.7516 84.4673 22.9844H84.5181C84.5265 22.8193 84.5625 22.6247 84.626 22.4004L85.9463 17.5H86.9746ZM93.5762 24H92.5352V20.293C92.5352 18.9134 92.0316 18.2236 91.0244 18.2236C90.5039 18.2236 90.0723 18.4204 89.7295 18.814C89.391 19.2033 89.2217 19.6963 89.2217 20.293V24H88.1807V17.5H89.2217V18.5791H89.2471C89.738 17.7581 90.4489 17.3477 91.3799 17.3477C92.0908 17.3477 92.6346 17.5783 93.0112 18.0396C93.3879 18.4966 93.5762 19.1589 93.5762 20.0264V24ZM96.585 24H95.5439V14.377H96.585V24ZM101.409 24.1523C100.449 24.1523 99.6805 23.8498 99.105 23.2446C98.5337 22.6353 98.248 21.8291 98.248 20.8262C98.248 19.7344 98.5464 18.8817 99.1431 18.2681C99.7397 17.6545 100.546 17.3477 101.562 17.3477C102.531 17.3477 103.286 17.646 103.828 18.2427C104.374 18.8394 104.646 19.6667 104.646 20.7246C104.646 21.7614 104.352 22.5929 103.764 23.2192C103.18 23.8413 102.395 24.1523 101.409 24.1523ZM101.485 18.2236C100.817 18.2236 100.288 18.4521 99.8984 18.9092C99.5091 19.362 99.3145 19.9883 99.3145 20.7881C99.3145 21.5583 99.5112 22.1655 99.9048 22.6099C100.298 23.0542 100.825 23.2764 101.485 23.2764C102.158 23.2764 102.674 23.0584 103.034 22.6226C103.398 22.1867 103.58 21.5667 103.58 20.7627C103.58 19.9502 103.398 19.3239 103.034 18.8838C102.674 18.4437 102.158 18.2236 101.485 18.2236ZM110.962 24H109.921V22.9844H109.896C109.443 23.763 108.777 24.1523 107.896 24.1523C107.249 24.1523 106.741 23.981 106.373 23.6382C106.009 23.2954 105.827 22.8405 105.827 22.2734C105.827 21.0589 106.542 20.3522 107.973 20.1533L109.921 19.8804C109.921 18.7759 109.475 18.2236 108.582 18.2236C107.799 18.2236 107.092 18.4902 106.462 19.0234V17.957C107.101 17.5508 107.837 17.3477 108.671 17.3477C110.199 17.3477 110.962 18.1559 110.962 19.7725V24ZM109.921 20.7119L108.354 20.9277C107.871 20.9954 107.507 21.116 107.262 21.2896C107.016 21.4588 106.894 21.7614 106.894 22.1973C106.894 22.5146 107.006 22.7749 107.23 22.978C107.458 23.1769 107.761 23.2764 108.138 23.2764C108.654 23.2764 109.079 23.0965 109.414 22.7368C109.752 22.3729 109.921 21.9137 109.921 21.3594V20.7119ZM118.472 24H117.431V22.8955H117.405C116.923 23.7334 116.178 24.1523 115.171 24.1523C114.354 24.1523 113.7 23.8625 113.209 23.2827C112.723 22.6987 112.479 21.9053 112.479 20.9023C112.479 19.8275 112.75 18.9663 113.292 18.3188C113.834 17.6714 114.555 17.3477 115.457 17.3477C116.349 17.3477 116.999 17.6989 117.405 18.4014H117.431V14.377H118.472V24ZM117.431 21.061V20.1025C117.431 19.5778 117.257 19.1335 116.91 18.7695C116.563 18.4056 116.123 18.2236 115.59 18.2236C114.955 18.2236 114.456 18.4564 114.092 18.9219C113.728 19.3874 113.546 20.0306 113.546 20.8516C113.546 21.6006 113.719 22.193 114.066 22.6289C114.418 23.0605 114.887 23.2764 115.476 23.2764C116.055 23.2764 116.525 23.0669 116.885 22.6479C117.249 22.229 117.431 21.7 117.431 21.061ZM126.863 24.1523C125.903 24.1523 125.135 23.8498 124.559 23.2446C123.988 22.6353 123.702 21.8291 123.702 20.8262C123.702 19.7344 124 18.8817 124.597 18.2681C125.194 17.6545 126 17.3477 127.016 17.3477C127.985 17.3477 128.74 17.646 129.282 18.2427C129.828 18.8394 130.101 19.6667 130.101 20.7246C130.101 21.7614 129.806 22.5929 129.218 23.2192C128.634 23.8413 127.849 24.1523 126.863 24.1523ZM126.939 18.2236C126.271 18.2236 125.742 18.4521 125.353 18.9092C124.963 19.362 124.769 19.9883 124.769 20.7881C124.769 21.5583 124.965 22.1655 125.359 22.6099C125.752 23.0542 126.279 23.2764 126.939 23.2764C127.612 23.2764 128.129 23.0584 128.488 22.6226C128.852 22.1867 129.034 21.5667 129.034 20.7627C129.034 19.9502 128.852 19.3239 128.488 18.8838C128.129 18.4437 127.612 18.2236 126.939 18.2236ZM137.159 24H136.118V20.293C136.118 18.9134 135.615 18.2236 134.607 18.2236C134.087 18.2236 133.655 18.4204 133.312 18.814C132.974 19.2033 132.805 19.6963 132.805 20.293V24H131.764V17.5H132.805V18.5791H132.83C133.321 17.7581 134.032 17.3477 134.963 17.3477C135.674 17.3477 136.218 17.5783 136.594 18.0396C136.971 18.4966 137.159 19.1589 137.159 20.0264V24ZM145.709 23.9365C145.464 24.0719 145.14 24.1396 144.738 24.1396C143.6 24.1396 143.031 23.5049 143.031 22.2354V18.3887H141.914V17.5H143.031V15.9131L144.072 15.5767V17.5H145.709V18.3887H144.072V22.0513C144.072 22.4871 144.146 22.7982 144.294 22.9844C144.442 23.1706 144.688 23.2637 145.03 23.2637C145.293 23.2637 145.519 23.1917 145.709 23.0479V23.9365ZM152.495 24H151.454V20.2549C151.454 18.9007 150.951 18.2236 149.943 18.2236C149.436 18.2236 149.008 18.4204 148.661 18.814C148.314 19.2033 148.141 19.7048 148.141 20.3184V24H147.1V14.377H148.141V18.5791H148.166C148.665 17.7581 149.376 17.3477 150.299 17.3477C151.763 17.3477 152.495 18.23 152.495 19.9946V24ZM159.687 21.0103H155.098C155.115 21.7339 155.309 22.2925 155.682 22.686C156.054 23.0796 156.566 23.2764 157.218 23.2764C157.95 23.2764 158.623 23.0352 159.236 22.5527V23.5303C158.665 23.945 157.91 24.1523 156.97 24.1523C156.052 24.1523 155.33 23.8582 154.806 23.27C154.281 22.6776 154.019 21.846 154.019 20.7754C154.019 19.764 154.304 18.9409 154.875 18.3062C155.451 17.6672 156.164 17.3477 157.015 17.3477C157.865 17.3477 158.523 17.6227 158.989 18.1729C159.454 18.723 159.687 19.4868 159.687 20.4644V21.0103ZM158.621 20.1279C158.616 19.527 158.47 19.0594 158.183 18.7251C157.899 18.3908 157.503 18.2236 156.996 18.2236C156.505 18.2236 156.088 18.3993 155.745 18.7505C155.402 19.1017 155.191 19.5609 155.11 20.1279H158.621Z" fill="#0085FF"/>
<path d="M42.0344 35.1109C42.0156 31.9141 43.4641 29.5047 46.3891 27.7281C44.7531 25.3844 42.2781 24.0953 39.0156 23.8469C35.9266 23.6031 32.5469 25.6469 31.3094 25.6469C30.0016 25.6469 27.0109 23.9313 24.6578 23.9313C19.8016 24.0063 14.6406 27.8031 14.6406 35.5281C14.6406 37.8109 15.0578 40.1688 15.8922 42.5969C17.0078 45.7938 21.0297 53.6266 25.225 53.5C27.4187 53.4484 28.9703 51.9438 31.825 51.9438C34.5953 51.9438 36.0297 53.5 38.4766 53.5C42.7094 53.4391 46.3469 46.3188 47.4062 43.1125C41.7297 40.4359 42.0344 35.275 42.0344 35.1109ZM37.1078 20.8141C39.4844 17.9922 39.2688 15.4234 39.1984 14.5C37.0984 14.6219 34.6703 15.9297 33.2875 17.5375C31.7641 19.2625 30.8687 21.3953 31.0609 23.8C33.3297 23.9734 35.4016 22.8063 37.1078 20.8141Z" fill="#0085FF"/>
</svg>
