<svg width="523" height="33" viewBox="0 0 523 33" fill="none" xmlns="http://www.w3.org/2000/svg">
<path d="M18.584 6.872V10.94H11.888V32H6.848V10.94H0.152V6.872H18.584ZM40.8013 21.596C40.8013 22.316 40.7533 22.964 40.6573 23.54H26.0773C26.1973 24.98 26.7013 26.108 27.5893 26.924C28.4773 27.74 29.5693 28.148 30.8653 28.148C32.7373 28.148 34.0693 27.344 34.8613 25.736H40.2973C39.7213 27.656 38.6173 29.24 36.9853 30.488C35.3533 31.712 33.3493 32.324 30.9733 32.324C29.0533 32.324 27.3253 31.904 25.7893 31.064C24.2773 30.2 23.0893 28.988 22.2253 27.428C21.3853 25.868 20.9653 24.068 20.9653 22.028C20.9653 19.964 21.3853 18.152 22.2253 16.592C23.0653 15.032 24.2413 13.832 25.7533 12.992C27.2653 12.152 29.0053 11.732 30.9733 11.732C32.8693 11.732 34.5613 12.14 36.0493 12.956C37.5613 13.772 38.7253 14.936 39.5413 16.448C40.3813 17.936 40.8013 19.652 40.8013 21.596ZM35.5813 20.156C35.5573 18.86 35.0893 17.828 34.1773 17.06C33.2653 16.268 32.1493 15.872 30.8293 15.872C29.5813 15.872 28.5253 16.256 27.6613 17.024C26.8213 17.768 26.3053 18.812 26.1133 20.156H35.5813ZM69.2481 11.768C71.6961 11.768 73.6641 12.524 75.1521 14.036C76.6641 15.524 77.4201 17.612 77.4201 20.3V32H72.3801V20.984C72.3801 19.424 71.9841 18.236 71.1921 17.42C70.4001 16.58 69.3201 16.16 67.9521 16.16C66.5841 16.16 65.4921 16.58 64.6761 17.42C63.8841 18.236 63.4881 19.424 63.4881 20.984V32H58.4481V20.984C58.4481 19.424 58.0521 18.236 57.2601 17.42C56.4681 16.58 55.3881 16.16 54.0201 16.16C52.6281 16.16 51.5241 16.58 50.7081 17.42C49.9161 18.236 49.5201 19.424 49.5201 20.984V32H44.4801V12.056H49.5201V14.468C50.1681 13.628 50.9961 12.968 52.0041 12.488C53.0361 12.008 54.1641 11.768 55.3881 11.768C56.9481 11.768 58.3401 12.104 59.5641 12.776C60.7881 13.424 61.7361 14.36 62.4081 15.584C63.0561 14.432 63.9921 13.508 65.2161 12.812C66.4641 12.116 67.8081 11.768 69.2481 11.768ZM89.8348 32.324C88.2028 32.324 86.7388 32.036 85.4428 31.46C84.1468 30.86 83.1148 30.056 82.3468 29.048C81.6028 28.04 81.1948 26.924 81.1228 25.7H86.1988C86.2948 26.468 86.6668 27.104 87.3148 27.608C87.9868 28.112 88.8148 28.364 89.7988 28.364C90.7588 28.364 91.5028 28.172 92.0308 27.788C92.5828 27.404 92.8588 26.912 92.8588 26.312C92.8588 25.664 92.5228 25.184 91.8508 24.872C91.2028 24.536 90.1588 24.176 88.7188 23.792C87.2308 23.432 86.0068 23.06 85.0468 22.676C84.1108 22.292 83.2948 21.704 82.5988 20.912C81.9268 20.12 81.5908 19.052 81.5908 17.708C81.5908 16.604 81.9028 15.596 82.5268 14.684C83.1748 13.772 84.0868 13.052 85.2628 12.524C86.4628 11.996 87.8668 11.732 89.4748 11.732C91.8508 11.732 93.7468 12.332 95.1628 13.532C96.5788 14.708 97.3588 16.304 97.5028 18.32H92.6788C92.6068 17.528 92.2708 16.904 91.6708 16.448C91.0948 15.968 90.3148 15.728 89.3308 15.728C88.4188 15.728 87.7108 15.896 87.2068 16.232C86.7268 16.568 86.4868 17.036 86.4868 17.636C86.4868 18.308 86.8228 18.824 87.4948 19.184C88.1668 19.52 89.2108 19.868 90.6268 20.228C92.0668 20.588 93.2548 20.96 94.1908 21.344C95.1268 21.728 95.9308 22.328 96.6028 23.144C97.2988 23.936 97.6588 24.992 97.6828 26.312C97.6828 27.464 97.3588 28.496 96.7108 29.408C96.0868 30.32 95.1748 31.04 93.9748 31.568C92.7988 32.072 91.4188 32.324 89.8348 32.324ZM104.376 9.68C103.488 9.68 102.744 9.404 102.144 8.852C101.568 8.276 101.28 7.568 101.28 6.728C101.28 5.888 101.568 5.192 102.144 4.64C102.744 4.064 103.488 3.776 104.376 3.776C105.264 3.776 105.996 4.064 106.572 4.64C107.172 5.192 107.472 5.888 107.472 6.728C107.472 7.568 107.172 8.276 106.572 8.852C105.996 9.404 105.264 9.68 104.376 9.68ZM106.86 12.056V32H101.82V12.056H106.86ZM116.879 5.36V32H111.839V5.36H116.879ZM120.563 22.028C120.563 19.964 120.983 18.164 121.823 16.628C122.663 15.068 123.827 13.868 125.315 13.028C126.803 12.164 128.507 11.732 130.427 11.732C132.899 11.732 134.939 12.356 136.547 13.604C138.179 14.828 139.271 16.556 139.823 18.788H134.387C134.099 17.924 133.607 17.252 132.911 16.772C132.239 16.268 131.399 16.016 130.391 16.016C128.951 16.016 127.811 16.544 126.971 17.6C126.131 18.632 125.711 20.108 125.711 22.028C125.711 23.924 126.131 25.4 126.971 26.456C127.811 27.488 128.951 28.004 130.391 28.004C132.431 28.004 133.763 27.092 134.387 25.268H139.823C139.271 27.428 138.179 29.144 136.547 30.416C134.915 31.688 132.875 32.324 130.427 32.324C128.507 32.324 126.803 31.904 125.315 31.064C123.827 30.2 122.663 29 121.823 27.464C120.983 25.904 120.563 24.092 120.563 22.028ZM146.071 9.68C145.183 9.68 144.439 9.404 143.839 8.852C143.263 8.276 142.975 7.568 142.975 6.728C142.975 5.888 143.263 5.192 143.839 4.64C144.439 4.064 145.183 3.776 146.071 3.776C146.959 3.776 147.691 4.064 148.267 4.64C148.867 5.192 149.167 5.888 149.167 6.728C149.167 7.568 148.867 8.276 148.267 8.852C147.691 9.404 146.959 9.68 146.071 9.68ZM148.555 12.056V32H143.515V12.056H148.555ZM161.167 32.324C159.535 32.324 158.071 32.036 156.775 31.46C155.479 30.86 154.447 30.056 153.679 29.048C152.935 28.04 152.527 26.924 152.455 25.7H157.531C157.627 26.468 157.999 27.104 158.647 27.608C159.319 28.112 160.147 28.364 161.131 28.364C162.091 28.364 162.835 28.172 163.363 27.788C163.915 27.404 164.191 26.912 164.191 26.312C164.191 25.664 163.855 25.184 163.183 24.872C162.535 24.536 161.491 24.176 160.051 23.792C158.563 23.432 157.339 23.06 156.379 22.676C155.443 22.292 154.627 21.704 153.931 20.912C153.259 20.12 152.923 19.052 152.923 17.708C152.923 16.604 153.235 15.596 153.859 14.684C154.507 13.772 155.419 13.052 156.595 12.524C157.795 11.996 159.199 11.732 160.807 11.732C163.183 11.732 165.079 12.332 166.495 13.532C167.911 14.708 168.691 16.304 168.835 18.32H164.011C163.939 17.528 163.603 16.904 163.003 16.448C162.427 15.968 161.647 15.728 160.663 15.728C159.751 15.728 159.043 15.896 158.539 16.232C158.059 16.568 157.819 17.036 157.819 17.636C157.819 18.308 158.155 18.824 158.827 19.184C159.499 19.52 160.543 19.868 161.959 20.228C163.399 20.588 164.587 20.96 165.523 21.344C166.459 21.728 167.263 22.328 167.935 23.144C168.631 23.936 168.991 24.992 169.015 26.312C169.015 27.464 168.691 28.496 168.043 29.408C167.419 30.32 166.507 31.04 165.307 31.568C164.131 32.072 162.751 32.324 161.167 32.324ZM175.708 9.68C174.82 9.68 174.076 9.404 173.476 8.852C172.9 8.276 172.612 7.568 172.612 6.728C172.612 5.888 172.9 5.192 173.476 4.64C174.076 4.064 174.82 3.776 175.708 3.776C176.596 3.776 177.328 4.064 177.904 4.64C178.504 5.192 178.804 5.888 178.804 6.728C178.804 7.568 178.504 8.276 177.904 8.852C177.328 9.404 176.596 9.68 175.708 9.68ZM178.192 12.056V32H173.152V12.056H178.192ZM203.378 32.252C201.05 32.252 198.902 31.712 196.934 30.632C194.99 29.528 193.442 28.004 192.29 26.06C191.162 24.092 190.598 21.884 190.598 19.436C190.598 16.988 191.162 14.792 192.29 12.848C193.442 10.904 194.99 9.392 196.934 8.312C198.902 7.208 201.05 6.656 203.378 6.656C205.73 6.656 207.878 7.208 209.822 8.312C211.79 9.392 213.338 10.904 214.466 12.848C215.594 14.792 216.158 16.988 216.158 19.436C216.158 21.884 215.594 24.092 214.466 26.06C213.338 28.004 211.79 29.528 209.822 30.632C207.878 31.712 205.73 32.252 203.378 32.252ZM203.378 28.688C205.034 28.688 206.51 28.316 207.806 27.572C209.102 26.804 210.11 25.724 210.83 24.332C211.574 22.916 211.946 21.284 211.946 19.436C211.946 17.588 211.574 15.968 210.83 14.576C210.11 13.184 209.102 12.116 207.806 11.372C206.51 10.628 205.034 10.256 203.378 10.256C201.722 10.256 200.246 10.628 198.95 11.372C197.654 12.116 196.634 13.184 195.89 14.576C195.17 15.968 194.81 17.588 194.81 19.436C194.81 21.284 195.17 22.916 195.89 24.332C196.634 25.724 197.654 26.804 198.95 27.572C200.246 28.316 201.722 28.688 203.378 28.688ZM224.3 5.36V32H220.196V5.36H224.3ZM253.7 11.84C255.26 11.84 256.652 12.164 257.876 12.812C259.124 13.46 260.096 14.42 260.792 15.692C261.512 16.964 261.872 18.5 261.872 20.3V32H257.804V20.912C257.804 19.136 257.36 17.78 256.472 16.844C255.584 15.884 254.372 15.404 252.836 15.404C251.3 15.404 250.076 15.884 249.164 16.844C248.276 17.78 247.832 19.136 247.832 20.912V32H243.764V20.912C243.764 19.136 243.32 17.78 242.432 16.844C241.544 15.884 240.332 15.404 238.796 15.404C237.26 15.404 236.036 15.884 235.124 16.844C234.236 17.78 233.792 19.136 233.792 20.912V32H229.688V12.164H233.792V14.432C234.464 13.616 235.316 12.98 236.348 12.524C237.38 12.068 238.484 11.84 239.66 11.84C241.244 11.84 242.66 12.176 243.908 12.848C245.156 13.52 246.116 14.492 246.788 15.764C247.388 14.564 248.324 13.616 249.596 12.92C250.868 12.2 252.236 11.84 253.7 11.84ZM265.727 21.992C265.727 20 266.135 18.236 266.951 16.7C267.791 15.164 268.919 13.976 270.335 13.136C271.775 12.272 273.359 11.84 275.087 11.84C276.647 11.84 278.003 12.152 279.155 12.776C280.331 13.376 281.267 14.132 281.963 15.044V12.164H286.103V32H281.963V29.048C281.267 29.984 280.319 30.764 279.119 31.388C277.919 32.012 276.551 32.324 275.015 32.324C273.311 32.324 271.751 31.892 270.335 31.028C268.919 30.14 267.791 28.916 266.951 27.356C266.135 25.772 265.727 23.984 265.727 21.992ZM281.963 22.064C281.963 20.696 281.675 19.508 281.099 18.5C280.547 17.492 279.815 16.724 278.903 16.196C277.991 15.668 277.007 15.404 275.951 15.404C274.895 15.404 273.911 15.668 272.999 16.196C272.087 16.7 271.343 17.456 270.767 18.464C270.215 19.448 269.939 20.624 269.939 21.992C269.939 23.36 270.215 24.56 270.767 25.592C271.343 26.624 272.087 27.416 272.999 27.968C273.935 28.496 274.919 28.76 275.951 28.76C277.007 28.76 277.991 28.496 278.903 27.968C279.815 27.44 280.547 26.672 281.099 25.664C281.675 24.632 281.963 23.432 281.963 22.064ZM299.341 22.1L308.485 32H302.941L295.597 23.468V32H291.493V5.36H295.597V20.84L302.797 12.164H308.485L299.341 22.1ZM324.882 6.98V32H320.778V6.98H324.882ZM322.83 4.46C322.23 4.46 321.714 4.256 321.282 3.848C320.874 3.416 320.67 2.9 320.67 2.3C320.67 1.7 320.874 1.196 321.282 0.787998C321.714 0.355998 322.23 0.139998 322.83 0.139998C323.43 0.139998 323.934 0.355998 324.342 0.787998C324.774 1.196 324.99 1.7 324.99 2.3C324.99 2.9 324.774 3.416 324.342 3.848C323.934 4.256 323.43 4.46 322.83 4.46ZM337.47 32.324C335.91 32.324 334.506 32.048 333.258 31.496C332.034 30.92 331.062 30.152 330.342 29.192C329.622 28.208 329.238 27.116 329.19 25.916H333.438C333.51 26.756 333.906 27.464 334.626 28.04C335.37 28.592 336.294 28.868 337.398 28.868C338.55 28.868 339.438 28.652 340.062 28.22C340.71 27.764 341.034 27.188 341.034 26.492C341.034 25.748 340.674 25.196 339.954 24.836C339.258 24.476 338.142 24.08 336.606 23.648C335.118 23.24 333.906 22.844 332.97 22.46C332.034 22.076 331.218 21.488 330.522 20.696C329.85 19.904 329.514 18.86 329.514 17.564C329.514 16.508 329.826 15.548 330.45 14.684C331.074 13.796 331.962 13.1 333.114 12.596C334.29 12.092 335.634 11.84 337.146 11.84C339.402 11.84 341.214 12.416 342.582 13.568C343.974 14.696 344.718 16.244 344.814 18.212H340.71C340.638 17.324 340.278 16.616 339.63 16.088C338.982 15.56 338.106 15.296 337.002 15.296C335.922 15.296 335.094 15.5 334.518 15.908C333.942 16.316 333.654 16.856 333.654 17.528C333.654 18.056 333.846 18.5 334.23 18.86C334.614 19.22 335.082 19.508 335.634 19.724C336.186 19.916 337.002 20.168 338.082 20.48C339.522 20.864 340.698 21.26 341.61 21.668C342.546 22.052 343.35 22.628 344.022 23.396C344.694 24.164 345.042 25.184 345.066 26.456C345.066 27.584 344.754 28.592 344.13 29.48C343.506 30.368 342.618 31.064 341.466 31.568C340.338 32.072 339.006 32.324 337.47 32.324ZM354.289 15.512V26.492C354.289 27.236 354.457 27.776 354.793 28.112C355.153 28.424 355.753 28.58 356.593 28.58H359.113V32H355.873C354.025 32 352.609 31.568 351.625 30.704C350.641 29.84 350.149 28.436 350.149 26.492V15.512H347.809V12.164H350.149V7.232H354.289V12.164H359.113V15.512H354.289ZM381.075 21.596C381.075 22.34 381.027 23.012 380.931 23.612H365.775C365.895 25.196 366.483 26.468 367.539 27.428C368.595 28.388 369.891 28.868 371.427 28.868C373.635 28.868 375.195 27.944 376.107 26.096H380.535C379.935 27.92 378.843 29.42 377.259 30.596C375.699 31.748 373.755 32.324 371.427 32.324C369.531 32.324 367.827 31.904 366.315 31.064C364.827 30.2 363.651 29 362.787 27.464C361.947 25.904 361.527 24.104 361.527 22.064C361.527 20.024 361.935 18.236 362.751 16.7C363.591 15.14 364.755 13.94 366.243 13.1C367.755 12.26 369.483 11.84 371.427 11.84C373.299 11.84 374.967 12.248 376.431 13.064C377.895 13.88 379.035 15.032 379.851 16.52C380.667 17.984 381.075 19.676 381.075 21.596ZM376.791 20.3C376.767 18.788 376.227 17.576 375.171 16.664C374.115 15.752 372.807 15.296 371.247 15.296C369.831 15.296 368.619 15.752 367.611 16.664C366.603 17.552 366.003 18.764 365.811 20.3H376.791ZM389.218 15.044C389.818 14.036 390.61 13.256 391.594 12.704C392.602 12.128 393.79 11.84 395.158 11.84V16.088H394.114C392.506 16.088 391.282 16.496 390.442 17.312C389.626 18.128 389.218 19.544 389.218 21.56V32H385.114V12.164H389.218V15.044ZM432.294 11.84C433.854 11.84 435.246 12.164 436.47 12.812C437.718 13.46 438.69 14.42 439.386 15.692C440.106 16.964 440.466 18.5 440.466 20.3V32H436.398V20.912C436.398 19.136 435.954 17.78 435.066 16.844C434.178 15.884 432.966 15.404 431.43 15.404C429.894 15.404 428.67 15.884 427.758 16.844C426.87 17.78 426.426 19.136 426.426 20.912V32H422.358V20.912C422.358 19.136 421.914 17.78 421.026 16.844C420.138 15.884 418.926 15.404 417.39 15.404C415.854 15.404 414.63 15.884 413.718 16.844C412.83 17.78 412.386 19.136 412.386 20.912V32H408.282V12.164H412.386V14.432C413.058 13.616 413.91 12.98 414.942 12.524C415.974 12.068 417.078 11.84 418.254 11.84C419.838 11.84 421.254 12.176 422.502 12.848C423.75 13.52 424.71 14.492 425.382 15.764C425.982 14.564 426.918 13.616 428.19 12.92C429.462 12.2 430.83 11.84 432.294 11.84ZM447.776 9.536C447.032 9.536 446.408 9.284 445.904 8.78C445.4 8.276 445.148 7.652 445.148 6.908C445.148 6.164 445.4 5.54 445.904 5.036C446.408 4.532 447.032 4.28 447.776 4.28C448.496 4.28 449.108 4.532 449.612 5.036C450.116 5.54 450.368 6.164 450.368 6.908C450.368 7.652 450.116 8.276 449.612 8.78C449.108 9.284 448.496 9.536 447.776 9.536ZM449.792 12.164V32H445.688V12.164H449.792ZM462.38 32.324C460.82 32.324 459.416 32.048 458.168 31.496C456.944 30.92 455.972 30.152 455.252 29.192C454.532 28.208 454.148 27.116 454.1 25.916H458.348C458.42 26.756 458.816 27.464 459.536 28.04C460.28 28.592 461.204 28.868 462.308 28.868C463.46 28.868 464.348 28.652 464.972 28.22C465.62 27.764 465.944 27.188 465.944 26.492C465.944 25.748 465.584 25.196 464.864 24.836C464.168 24.476 463.052 24.08 461.516 23.648C460.028 23.24 458.816 22.844 457.88 22.46C456.944 22.076 456.128 21.488 455.432 20.696C454.76 19.904 454.424 18.86 454.424 17.564C454.424 16.508 454.736 15.548 455.36 14.684C455.984 13.796 456.872 13.1 458.024 12.596C459.2 12.092 460.544 11.84 462.056 11.84C464.312 11.84 466.124 12.416 467.492 13.568C468.884 14.696 469.628 16.244 469.724 18.212H465.62C465.548 17.324 465.188 16.616 464.54 16.088C463.892 15.56 463.016 15.296 461.912 15.296C460.832 15.296 460.004 15.5 459.428 15.908C458.852 16.316 458.564 16.856 458.564 17.528C458.564 18.056 458.756 18.5 459.14 18.86C459.524 19.22 459.992 19.508 460.544 19.724C461.096 19.916 461.912 20.168 462.992 20.48C464.432 20.864 465.608 21.26 466.52 21.668C467.456 22.052 468.26 22.628 468.932 23.396C469.604 24.164 469.952 25.184 469.976 26.456C469.976 27.584 469.664 28.592 469.04 29.48C468.416 30.368 467.528 31.064 466.376 31.568C465.248 32.072 463.916 32.324 462.38 32.324ZM476.499 9.536C475.755 9.536 475.131 9.284 474.627 8.78C474.123 8.276 473.871 7.652 473.871 6.908C473.871 6.164 474.123 5.54 474.627 5.036C475.131 4.532 475.755 4.28 476.499 4.28C477.219 4.28 477.831 4.532 478.335 5.036C478.839 5.54 479.091 6.164 479.091 6.908C479.091 7.652 478.839 8.276 478.335 8.78C477.831 9.284 477.219 9.536 476.499 9.536ZM478.515 12.164V32H474.411V12.164H478.515ZM493.911 11.84C495.471 11.84 496.863 12.164 498.087 12.812C499.335 13.46 500.307 14.42 501.003 15.692C501.699 16.964 502.047 18.5 502.047 20.3V32H497.979V20.912C497.979 19.136 497.535 17.78 496.647 16.844C495.759 15.884 494.547 15.404 493.011 15.404C491.475 15.404 490.251 15.884 489.339 16.844C488.451 17.78 488.007 19.136 488.007 20.912V32H483.903V12.164H488.007V14.432C488.679 13.616 489.531 12.98 490.563 12.524C491.619 12.068 492.735 11.84 493.911 11.84ZM514.014 6.62C516.462 6.62 518.418 7.292 519.882 8.636C521.37 9.98 522.114 11.816 522.114 14.144C522.114 16.568 521.346 18.392 519.81 19.616C518.274 20.84 516.234 21.452 513.69 21.452L513.546 24.296H509.982L509.802 18.644H510.99C513.318 18.644 515.094 18.332 516.318 17.708C517.566 17.084 518.19 15.896 518.19 14.144C518.19 12.872 517.818 11.876 517.074 11.156C516.354 10.436 515.346 10.076 514.05 10.076C512.754 10.076 511.734 10.424 510.99 11.12C510.246 11.816 509.874 12.788 509.874 14.036H506.022C506.022 12.596 506.346 11.312 506.994 10.184C507.642 9.056 508.566 8.18 509.766 7.556C510.99 6.932 512.406 6.62 514.014 6.62ZM511.71 32.252C510.966 32.252 510.342 32 509.838 31.496C509.334 30.992 509.082 30.368 509.082 29.624C509.082 28.88 509.334 28.256 509.838 27.752C510.342 27.248 510.966 26.996 511.71 26.996C512.43 26.996 513.042 27.248 513.546 27.752C514.05 28.256 514.302 28.88 514.302 29.624C514.302 30.368 514.05 30.992 513.546 31.496C513.042 32 512.43 32.252 511.71 32.252Z" fill="#0C2562"/>
</svg>
